<?xml version="1.0" encoding="UTF-8"?>
<!DOCTYPE svg PUBLIC "-//W3C//DTD SVG 1.1//EN" "http://www.w3.org/Graphics/SVG/1.1/DTD/svg11.dtd">
<svg width="206mm" height="90mm" viewBox="0 0 20600 9000" version="1.1" baseProfile="tiny" xmlns="http://www.w3.org/2000/svg" stroke-width="28.222" stroke-linejoin="round" xml:space="preserve">
 <path fill="rgb(255,255,255)" stroke="none" d="M 10309,9005 L 0,9005 0,0 20617,0 20617,9005 10309,9005 Z"/>
 <path fill="none" stroke="rgb(179,179,179)" stroke-linejoin="round" d="M 9693,8178 L 1324,8178 1324,379 18062,379 18062,8178 9693,8178 Z"/>
 <path fill="none" stroke="rgb(179,179,179)" stroke-linejoin="round" d="M 18062,8176 L 1324,8176"/>
 <path fill="none" stroke="rgb(179,179,179)" stroke-linejoin="round" d="M 18062,6876 L 1324,6876"/>
 <path fill="none" stroke="rgb(179,179,179)" stroke-linejoin="round" d="M 18062,5577 L 1324,5577"/>
 <path fill="none" stroke="rgb(179,179,179)" stroke-linejoin="round" d="M 18062,4278 L 1324,4278"/>
 <path fill="none" stroke="rgb(179,179,179)" stroke-linejoin="round" d="M 18062,2978 L 1324,2978"/>
 <path fill="none" stroke="rgb(179,179,179)" stroke-linejoin="round" d="M 18062,1678 L 1324,1678"/>
 <path fill="none" stroke="rgb(179,179,179)" stroke-linejoin="round" d="M 18062,378 L 1324,378"/>
 <path fill="none" stroke="rgb(179,179,179)" stroke-linejoin="round" d="M 1324,8326 L 1324,8176"/>
 <path fill="none" stroke="rgb(179,179,179)" stroke-linejoin="round" d="M 1324,8326 L 1324,8176"/>
 <path fill="none" stroke="rgb(179,179,179)" stroke-linejoin="round" d="M 4113,8326 L 4113,8176"/>
 <path fill="none" stroke="rgb(179,179,179)" stroke-linejoin="round" d="M 4113,8326 L 4113,8176"/>
 <path fill="none" stroke="rgb(179,179,179)" stroke-linejoin="round" d="M 6903,8326 L 6903,8176"/>
 <path fill="none" stroke="rgb(179,179,179)" stroke-linejoin="round" d="M 6903,8326 L 6903,8176"/>
 <path fill="none" stroke="rgb(179,179,179)" stroke-linejoin="round" d="M 9693,8326 L 9693,8176"/>
 <path fill="none" stroke="rgb(179,179,179)" stroke-linejoin="round" d="M 9693,8326 L 9693,8176"/>
 <path fill="none" stroke="rgb(179,179,179)" stroke-linejoin="round" d="M 12482,8326 L 12482,8176"/>
 <path fill="none" stroke="rgb(179,179,179)" stroke-linejoin="round" d="M 12482,8326 L 12482,8176"/>
 <path fill="none" stroke="rgb(179,179,179)" stroke-linejoin="round" d="M 15272,8326 L 15272,8176"/>
 <path fill="none" stroke="rgb(179,179,179)" stroke-linejoin="round" d="M 15272,8326 L 15272,8176"/>
 <path fill="none" stroke="rgb(179,179,179)" stroke-linejoin="round" d="M 18062,8326 L 18062,8176"/>
 <path fill="none" stroke="rgb(179,179,179)" stroke-linejoin="round" d="M 18062,8326 L 18062,8176"/>
 <path fill="none" stroke="rgb(179,179,179)" stroke-linejoin="round" d="M 1324,8176 L 18062,8176"/>
 <path fill="none" stroke="rgb(179,179,179)" stroke-linejoin="round" d="M 1174,8176 L 1324,8176"/>
 <path fill="none" stroke="rgb(179,179,179)" stroke-linejoin="round" d="M 1174,8176 L 1324,8176"/>
 <path fill="none" stroke="rgb(179,179,179)" stroke-linejoin="round" d="M 1174,6876 L 1324,6876"/>
 <path fill="none" stroke="rgb(179,179,179)" stroke-linejoin="round" d="M 1174,6876 L 1324,6876"/>
 <path fill="none" stroke="rgb(179,179,179)" stroke-linejoin="round" d="M 1174,5577 L 1324,5577"/>
 <path fill="none" stroke="rgb(179,179,179)" stroke-linejoin="round" d="M 1174,5577 L 1324,5577"/>
 <path fill="none" stroke="rgb(179,179,179)" stroke-linejoin="round" d="M 1174,4278 L 1324,4278"/>
 <path fill="none" stroke="rgb(179,179,179)" stroke-linejoin="round" d="M 1174,4278 L 1324,4278"/>
 <path fill="none" stroke="rgb(179,179,179)" stroke-linejoin="round" d="M 1174,2978 L 1324,2978"/>
 <path fill="none" stroke="rgb(179,179,179)" stroke-linejoin="round" d="M 1174,2978 L 1324,2978"/>
 <path fill="none" stroke="rgb(179,179,179)" stroke-linejoin="round" d="M 1174,1678 L 1324,1678"/>
 <path fill="none" stroke="rgb(179,179,179)" stroke-linejoin="round" d="M 1174,1678 L 1324,1678"/>
 <path fill="none" stroke="rgb(179,179,179)" stroke-linejoin="round" d="M 1174,378 L 1324,378"/>
 <path fill="none" stroke="rgb(179,179,179)" stroke-linejoin="round" d="M 1174,378 L 1324,378"/>
 <path fill="none" stroke="rgb(179,179,179)" stroke-linejoin="round" d="M 1324,8176 L 1324,378"/>
 <path fill="rgb(0,69,134)" stroke="none" d="M 15969,8176 L 17364,8176 17364,2121 15969,2121 15969,8176 Z"/>
 <path fill="rgb(0,69,134)" stroke="none" d="M 13179,8176 L 14574,8176 14574,3421 13179,3421 13179,8176 Z"/>
 <path fill="rgb(0,69,134)" stroke="none" d="M 10389,8176 L 11784,8176 11784,1146 10389,1146 10389,8176 Z"/>
 <path fill="rgb(0,69,134)" stroke="none" d="M 7601,8176 L 8996,8176 8996,2416 7601,2416 7601,8176 Z"/>
 <path fill="rgb(0,69,134)" stroke="none" d="M 4811,8176 L 6206,8176 6206,5192 4811,5192 4811,8176 Z"/>
 <path fill="rgb(0,69,134)" stroke="none" d="M 2021,8176 L 3416,8176 3416,5577 2021,5577 2021,8176 Z"/>
 <text class="TextShape"><tspan class="TextParagraph" font-family="Liberation Sans, sans-serif" font-size="353px" font-weight="400"><tspan class="TextPosition" x="2162" y="8744"><tspan fill="rgb(0,0,0)" stroke="none">RawPtr</tspan></tspan></tspan></text>
 <text class="TextShape"><tspan class="TextParagraph" font-family="Liberation Sans, sans-serif" font-size="353px" font-weight="400"><tspan class="TextPosition" x="4754" y="8744"><tspan fill="rgb(0,0,0)" stroke="none">UniquePtr</tspan></tspan></tspan></text>
 <text class="TextShape"><tspan class="TextParagraph" font-family="Liberation Sans, sans-serif" font-size="353px" font-weight="400"><tspan class="TextPosition" x="7107" y="8744"><tspan fill="rgb(0,0,0)" stroke="none">MakeSharedPtr</tspan></tspan></tspan></text>
 <text class="TextShape"><tspan class="TextParagraph" font-family="Liberation Sans, sans-serif" font-size="353px" font-weight="400"><tspan class="TextPosition" x="10320" y="8744"><tspan fill="rgb(0,0,0)" stroke="none">SharedPtr</tspan></tspan></tspan></text>
 <text class="TextShape"><tspan class="TextParagraph" font-family="Liberation Sans, sans-serif" font-size="353px" font-weight="400"><tspan class="TextPosition" x="13031" y="8744"><tspan fill="rgb(0,0,0)" stroke="none">IntrusivePtr</tspan></tspan></tspan></text>
 <text class="TextShape"><tspan class="TextParagraph" font-family="Liberation Sans, sans-serif" font-size="353px" font-weight="400"><tspan class="TextPosition" x="15279" y="8744"><tspan fill="rgb(0,0,0)" stroke="none">IntrusiveAtomicPtr</tspan></tspan></tspan></text>
 <text class="TextShape"><tspan class="TextParagraph" font-family="Liberation Sans, sans-serif" font-size="353px" font-weight="400"><tspan class="TextPosition" x="598" y="8297"><tspan fill="rgb(0,0,0)" stroke="none">0.9</tspan></tspan></tspan></text>
 <text class="TextShape"><tspan class="TextParagraph" font-family="Liberation Sans, sans-serif" font-size="353px" font-weight="400"><tspan class="TextPosition" x="413" y="6997"><tspan fill="rgb(0,0,0)" stroke="none">0.95</tspan></tspan></tspan></text>
 <text class="TextShape"><tspan class="TextParagraph" font-family="Liberation Sans, sans-serif" font-size="353px" font-weight="400"><tspan class="TextPosition" x="889" y="5698"><tspan fill="rgb(0,0,0)" stroke="none">1</tspan></tspan></tspan></text>
 <text class="TextShape"><tspan class="TextParagraph" font-family="Liberation Sans, sans-serif" font-size="353px" font-weight="400"><tspan class="TextPosition" x="413" y="4398"><tspan fill="rgb(0,0,0)" stroke="none">1.05</tspan></tspan></tspan></text>
 <text class="TextShape"><tspan class="TextParagraph" font-family="Liberation Sans, sans-serif" font-size="353px" font-weight="400"><tspan class="TextPosition" x="598" y="3098"><tspan fill="rgb(0,0,0)" stroke="none">1.1</tspan></tspan></tspan></text>
 <text class="TextShape"><tspan class="TextParagraph" font-family="Liberation Sans, sans-serif" font-size="353px" font-weight="400"><tspan class="TextPosition" x="413" y="1798"><tspan fill="rgb(0,0,0)" stroke="none">1.15</tspan></tspan></tspan></text>
 <text class="TextShape"><tspan class="TextParagraph" font-family="Liberation Sans, sans-serif" font-size="353px" font-weight="400"><tspan class="TextPosition" x="598" y="498"><tspan fill="rgb(0,0,0)" stroke="none">1.2</tspan></tspan></tspan></text>
 <path fill="rgb(0,69,134)" stroke="none" d="M 18761,4607 L 18655,4607 18655,4397 18866,4397 18866,4607 18761,4607 Z"/>
 <text class="TextShape"><tspan class="TextParagraph" font-family="Liberation Sans, sans-serif" font-size="353px" font-weight="400"><tspan class="TextPosition" x="18966" y="4621"><tspan fill="rgb(0,0,0)" stroke="none">Baseline</tspan></tspan></tspan></text>
</svg>