<?xml version="1.0" encoding="UTF-8"?>
<!DOCTYPE svg PUBLIC "-//W3C//DTD SVG 1.1//EN" "http://www.w3.org/Graphics/SVG/1.1/DTD/svg11.dtd">
<svg width="160mm" height="90mm" viewBox="0 0 16000 9000" version="1.1" baseProfile="tiny" xmlns="http://www.w3.org/2000/svg" stroke-width="28.222" stroke-linejoin="round" xml:space="preserve">
 <path fill="rgb(255,255,255)" stroke="none" d="M 8000,8999 L 0,8999 0,0 15999,0 15999,8999 8000,8999 Z"/>
 <path fill="none" stroke="rgb(179,179,179)" stroke-linejoin="round" d="M 6196,8172 L 756,8172 756,380 11635,380 11635,8172 6196,8172 Z"/>
 <path fill="none" stroke="rgb(179,179,179)" stroke-linejoin="round" d="M 11635,8171 L 756,8171"/>
 <path fill="none" stroke="rgb(179,179,179)" stroke-linejoin="round" d="M 11635,7057 L 756,7057"/>
 <path fill="none" stroke="rgb(179,179,179)" stroke-linejoin="round" d="M 11635,5944 L 756,5944"/>
 <path fill="none" stroke="rgb(179,179,179)" stroke-linejoin="round" d="M 11635,4831 L 756,4831"/>
 <path fill="none" stroke="rgb(179,179,179)" stroke-linejoin="round" d="M 11635,3718 L 756,3718"/>
 <path fill="none" stroke="rgb(179,179,179)" stroke-linejoin="round" d="M 11635,2605 L 756,2605"/>
 <path fill="none" stroke="rgb(179,179,179)" stroke-linejoin="round" d="M 11635,1492 L 756,1492"/>
 <path fill="none" stroke="rgb(179,179,179)" stroke-linejoin="round" d="M 11635,378 L 756,378"/>
 <path fill="none" stroke="rgb(179,179,179)" stroke-linejoin="round" d="M 756,8321 L 756,8171"/>
 <path fill="none" stroke="rgb(179,179,179)" stroke-linejoin="round" d="M 756,8321 L 756,8171"/>
 <path fill="none" stroke="rgb(179,179,179)" stroke-linejoin="round" d="M 2569,8321 L 2569,8171"/>
 <path fill="none" stroke="rgb(179,179,179)" stroke-linejoin="round" d="M 2569,8321 L 2569,8171"/>
 <path fill="none" stroke="rgb(179,179,179)" stroke-linejoin="round" d="M 4382,8321 L 4382,8171"/>
 <path fill="none" stroke="rgb(179,179,179)" stroke-linejoin="round" d="M 4382,8321 L 4382,8171"/>
 <path fill="none" stroke="rgb(179,179,179)" stroke-linejoin="round" d="M 6196,8321 L 6196,8171"/>
 <path fill="none" stroke="rgb(179,179,179)" stroke-linejoin="round" d="M 6196,8321 L 6196,8171"/>
 <path fill="none" stroke="rgb(179,179,179)" stroke-linejoin="round" d="M 8008,8321 L 8008,8171"/>
 <path fill="none" stroke="rgb(179,179,179)" stroke-linejoin="round" d="M 8008,8321 L 8008,8171"/>
 <path fill="none" stroke="rgb(179,179,179)" stroke-linejoin="round" d="M 9821,8321 L 9821,8171"/>
 <path fill="none" stroke="rgb(179,179,179)" stroke-linejoin="round" d="M 9821,8321 L 9821,8171"/>
 <path fill="none" stroke="rgb(179,179,179)" stroke-linejoin="round" d="M 11635,8321 L 11635,8171"/>
 <path fill="none" stroke="rgb(179,179,179)" stroke-linejoin="round" d="M 11635,8321 L 11635,8171"/>
 <path fill="none" stroke="rgb(179,179,179)" stroke-linejoin="round" d="M 756,8171 L 11635,8171"/>
 <path fill="none" stroke="rgb(179,179,179)" stroke-linejoin="round" d="M 606,8171 L 756,8171"/>
 <path fill="none" stroke="rgb(179,179,179)" stroke-linejoin="round" d="M 606,8171 L 756,8171"/>
 <path fill="none" stroke="rgb(179,179,179)" stroke-linejoin="round" d="M 606,7057 L 756,7057"/>
 <path fill="none" stroke="rgb(179,179,179)" stroke-linejoin="round" d="M 606,7057 L 756,7057"/>
 <path fill="none" stroke="rgb(179,179,179)" stroke-linejoin="round" d="M 606,5944 L 756,5944"/>
 <path fill="none" stroke="rgb(179,179,179)" stroke-linejoin="round" d="M 606,5944 L 756,5944"/>
 <path fill="none" stroke="rgb(179,179,179)" stroke-linejoin="round" d="M 606,4831 L 756,4831"/>
 <path fill="none" stroke="rgb(179,179,179)" stroke-linejoin="round" d="M 606,4831 L 756,4831"/>
 <path fill="none" stroke="rgb(179,179,179)" stroke-linejoin="round" d="M 606,3718 L 756,3718"/>
 <path fill="none" stroke="rgb(179,179,179)" stroke-linejoin="round" d="M 606,3718 L 756,3718"/>
 <path fill="none" stroke="rgb(179,179,179)" stroke-linejoin="round" d="M 606,2605 L 756,2605"/>
 <path fill="none" stroke="rgb(179,179,179)" stroke-linejoin="round" d="M 606,2605 L 756,2605"/>
 <path fill="none" stroke="rgb(179,179,179)" stroke-linejoin="round" d="M 606,1492 L 756,1492"/>
 <path fill="none" stroke="rgb(179,179,179)" stroke-linejoin="round" d="M 606,1492 L 756,1492"/>
 <path fill="none" stroke="rgb(179,179,179)" stroke-linejoin="round" d="M 606,378 L 756,378"/>
 <path fill="none" stroke="rgb(179,179,179)" stroke-linejoin="round" d="M 606,378 L 756,378"/>
 <path fill="none" stroke="rgb(179,179,179)" stroke-linejoin="round" d="M 756,8171 L 756,378"/>
 <path fill="none" stroke="rgb(87,157,28)" stroke-width="80" stroke-linejoin="round" d="M 828,6979 L 901,7090 1046,6884 1336,6702 1916,6977 3077,4952 5398,3315 10039,888"/>
 <path fill="none" stroke="rgb(255,211,32)" stroke-width="80" stroke-linejoin="round" d="M 828,7057 L 901,7057 1046,7057 1336,7057 1916,7057 3077,7057 5398,7057 10039,7057"/>
 <path fill="none" stroke="rgb(255,66,14)" stroke-width="80" stroke-linejoin="round" d="M 828,7021 L 901,6998 1046,6914 1336,7158 1916,6486 3077,6308 5398,5735 10039,3839"/>
 <path fill="none" stroke="rgb(0,69,134)" stroke-width="80" stroke-linejoin="round" d="M 828,7150 L 901,7016 1046,6949 1336,6804 1916,6421 3077,6315 5398,5747 10039,3852"/>
 <text class="TextShape"><tspan class="TextParagraph" font-family="Liberation Sans" font-size="353px" font-weight="400"><tspan class="TextPosition" x="663" y="8739"><tspan fill="rgb(0,0,0)" stroke="none">0</tspan></tspan></tspan></text>
 <text class="TextShape"><tspan class="TextParagraph" font-family="Liberation Sans" font-size="353px" font-weight="400"><tspan class="TextPosition" x="2291" y="8739"><tspan fill="rgb(0,0,0)" stroke="none">200</tspan></tspan></tspan></text>
 <text class="TextShape"><tspan class="TextParagraph" font-family="Liberation Sans" font-size="353px" font-weight="400"><tspan class="TextPosition" x="4104" y="8739"><tspan fill="rgb(0,0,0)" stroke="none">400</tspan></tspan></tspan></text>
 <text class="TextShape"><tspan class="TextParagraph" font-family="Liberation Sans" font-size="353px" font-weight="400"><tspan class="TextPosition" x="5918" y="8739"><tspan fill="rgb(0,0,0)" stroke="none">600</tspan></tspan></tspan></text>
 <text class="TextShape"><tspan class="TextParagraph" font-family="Liberation Sans" font-size="353px" font-weight="400"><tspan class="TextPosition" x="7731" y="8739"><tspan fill="rgb(0,0,0)" stroke="none">800</tspan></tspan></tspan></text>
 <text class="TextShape"><tspan class="TextParagraph" font-family="Liberation Sans" font-size="353px" font-weight="400"><tspan class="TextPosition" x="9451" y="8739"><tspan fill="rgb(0,0,0)" stroke="none">1000</tspan></tspan></tspan></text>
 <text class="TextShape"><tspan class="TextParagraph" font-family="Liberation Sans" font-size="353px" font-weight="400"><tspan class="TextPosition" x="11265" y="8739"><tspan fill="rgb(0,0,0)" stroke="none">1200</tspan></tspan></tspan></text>
 <text class="TextShape"><tspan class="TextParagraph" font-family="Liberation Sans" font-size="353px" font-weight="400"><tspan class="TextPosition" x="321" y="8292"><tspan fill="rgb(0,0,0)" stroke="none">0</tspan></tspan></tspan></text>
 <text class="TextShape"><tspan class="TextParagraph" font-family="Liberation Sans" font-size="353px" font-weight="400"><tspan class="TextPosition" x="321" y="7178"><tspan fill="rgb(0,0,0)" stroke="none">1</tspan></tspan></tspan></text>
 <text class="TextShape"><tspan class="TextParagraph" font-family="Liberation Sans" font-size="353px" font-weight="400"><tspan class="TextPosition" x="321" y="6065"><tspan fill="rgb(0,0,0)" stroke="none">2</tspan></tspan></tspan></text>
 <text class="TextShape"><tspan class="TextParagraph" font-family="Liberation Sans" font-size="353px" font-weight="400"><tspan class="TextPosition" x="321" y="4952"><tspan fill="rgb(0,0,0)" stroke="none">3</tspan></tspan></tspan></text>
 <text class="TextShape"><tspan class="TextParagraph" font-family="Liberation Sans" font-size="353px" font-weight="400"><tspan class="TextPosition" x="321" y="3838"><tspan fill="rgb(0,0,0)" stroke="none">4</tspan></tspan></tspan></text>
 <text class="TextShape"><tspan class="TextParagraph" font-family="Liberation Sans" font-size="353px" font-weight="400"><tspan class="TextPosition" x="321" y="2725"><tspan fill="rgb(0,0,0)" stroke="none">5</tspan></tspan></tspan></text>
 <text class="TextShape"><tspan class="TextParagraph" font-family="Liberation Sans" font-size="353px" font-weight="400"><tspan class="TextPosition" x="321" y="1612"><tspan fill="rgb(0,0,0)" stroke="none">6</tspan></tspan></tspan></text>
 <text class="TextShape"><tspan class="TextParagraph" font-family="Liberation Sans" font-size="353px" font-weight="400"><tspan class="TextPosition" x="321" y="498"><tspan fill="rgb(0,0,0)" stroke="none">7</tspan></tspan></tspan></text>
 <path fill="none" stroke="rgb(0,69,134)" stroke-width="80" stroke-linejoin="round" d="M 12443,3752 L 13243,3752"/>
 <path fill="none" stroke="rgb(255,66,14)" stroke-width="80" stroke-linejoin="round" d="M 12443,4250 L 13243,4250"/>
 <path fill="none" stroke="rgb(255,211,32)" stroke-width="80" stroke-linejoin="round" d="M 12443,4747 L 13243,4747"/>
 <path fill="none" stroke="rgb(87,157,28)" stroke-width="80" stroke-linejoin="round" d="M 12443,5245 L 13243,5245"/>
 <text class="TextShape"><tspan class="TextParagraph" font-family="Liberation Sans" font-size="353px" font-weight="400"><tspan class="TextPosition" x="13343" y="3872"><tspan fill="rgb(0,0,0)" stroke="none">Intrusive</tspan></tspan></tspan></text>
 <text class="TextShape"><tspan class="TextParagraph" font-family="Liberation Sans" font-size="353px" font-weight="400"><tspan class="TextPosition" x="13343" y="4370"><tspan fill="rgb(0,0,0)" stroke="none">IntrusiveAtomic</tspan></tspan></tspan></text>
 <text class="TextShape"><tspan class="TextParagraph" font-family="Liberation Sans" font-size="353px" font-weight="400"><tspan class="TextPosition" x="13343" y="4867"><tspan fill="rgb(0,0,0)" stroke="none">Raw</tspan></tspan></tspan></text>
 <text class="TextShape"><tspan class="TextParagraph" font-family="Liberation Sans" font-size="353px" font-weight="400"><tspan class="TextPosition" x="13343" y="5365"><tspan fill="rgb(0,0,0)" stroke="none">Shared</tspan></tspan></tspan></text>
</svg>